<?xml version="1.0" standalone="no"?>
<!DOCTYPE svg PUBLIC "-//W3C//DTD SVG 20010904//EN"
 "http://www.w3.org/TR/2001/REC-SVG-20010904/DTD/svg10.dtd">
<svg version="1.0" xmlns="http://www.w3.org/2000/svg"
 width="400.000000pt" height="400.000000pt" viewBox="0 0 400.000000 400.000000"
 preserveAspectRatio="xMidYMid meet">
<metadata>
Created by potrace 1.11, written by Peter Selinger 2001-2013
</metadata>
<g transform="translate(0.000000,400.000000) scale(0.100000,-0.100000)"
fill="#000000" stroke="none">
<path d="M0 2000 l0 -2000 2000 0 2000 0 0 2000 0 2000 -2000 0 -2000 0 0
-2000z m2185 1844 c28 -9 64 -20 80 -26 17 -5 47 -14 69 -18 59 -12 73 -43 29
-61 -16 -7 -38 -16 -49 -21 -12 -6 -92 -11 -177 -12 -145 -1 -155 0 -146 16 5
10 14 18 19 18 20 0 9 31 -15 42 -35 16 -28 26 35 53 67 28 91 29 155 9z m308
-139 c7 -17 145 -110 178 -118 42 -11 86 -44 102 -76 14 -27 14 -31 1 -31 -9
0 -12 -5 -9 -10 4 -6 19 -9 33 -8 21 2 27 -1 26 -14 -1 -10 3 -18 10 -18 6 0
24 -10 39 -23 l28 -22 -68 -2 c-91 -3 -168 20 -207 62 -17 18 -46 41 -64 50
-46 22 -33 30 44 26 53 -2 64 0 64 13 0 10 -9 16 -22 16 -12 0 -31 9 -42 19
-12 11 -38 23 -59 26 -34 7 -39 5 -44 -14 -4 -16 -10 -20 -22 -14 -9 4 -47 8
-85 10 -79 2 -92 13 -69 58 9 16 19 37 23 45 4 8 24 18 44 21 20 3 39 9 43 12
12 13 51 7 56 -8z m-940 -12 c4 -3 -2 -17 -14 -29 -20 -21 -20 -26 -10 -120
16 -142 19 -156 42 -184 19 -22 22 -23 30 -7 6 9 15 17 21 17 7 0 29 12 50 27
58 39 69 21 33 -58 -24 -55 -27 -69 -21 -127 4 -36 9 -69 11 -73 8 -11 85 30
92 49 8 24 54 72 69 72 6 0 23 9 38 21 14 11 31 17 36 14 6 -4 22 0 35 9 23
15 27 14 69 -14 44 -30 47 -31 134 -24 68 5 91 3 103 -7 40 -38 88 -66 123
-72 23 -4 55 -19 75 -37 20 -17 54 -39 76 -49 61 -29 136 -92 293 -249 79 -78
150 -142 158 -142 10 0 14 -12 14 -40 0 -44 5 -42 -93 -44 -54 -1 -61 -4 -87
-36 -16 -19 -30 -40 -30 -47 0 -6 -14 -23 -31 -36 l-31 -24 13 -54 c15 -63 24
-78 57 -90 13 -5 21 -13 18 -18 -8 -12 16 -57 38 -71 23 -14 126 -14 176 0 19
5 58 10 86 10 61 0 79 -16 126 -111 29 -60 31 -70 30 -164 -2 -133 -3 -223 -2
-383 0 -114 -3 -141 -21 -182 -19 -45 -20 -61 -15 -187 4 -76 8 -167 11 -202
7 -112 -41 -180 -139 -197 -22 -3 -50 -12 -61 -19 -17 -11 -30 -9 -89 15 -37
16 -94 31 -126 33 -66 6 -131 41 -154 86 -15 27 -42 43 -97 55 -53 11 -37 60
54 160 9 11 17 25 17 32 0 6 9 14 20 17 11 3 20 14 20 25 0 15 14 25 59 42 33
12 67 30 77 41 9 10 23 19 30 19 7 0 30 18 51 40 34 37 41 40 74 35 41 -7 62
10 57 47 -4 29 -50 36 -102 14 -20 -8 -43 -13 -51 -10 -31 12 -10 64 25 64 9
0 23 12 30 26 13 23 12 27 -3 35 -43 25 4 143 71 178 12 6 22 17 22 24 -1 12
-124 74 -185 93 -31 10 -100 98 -90 114 3 5 0 12 -6 15 -6 5 -8 20 -5 40 4 22
2 36 -8 44 -8 6 -21 35 -31 64 -14 44 -30 83 -76 179 -5 9 -11 35 -15 57 -6
37 -9 40 -48 46 -22 4 -55 16 -73 26 l-31 20 -94 -37 c-51 -21 -120 -52 -153
-69 -70 -37 -153 -65 -190 -65 -14 0 -37 -7 -50 -16 -20 -13 -31 -14 -58 -5
-38 13 -67 57 -87 136 -7 28 -17 54 -21 60 -19 20 -9 62 16 73 14 6 25 16 25
22 0 6 -18 35 -41 65 -35 47 -44 53 -60 44 -10 -5 -19 -17 -19 -27 -1 -9 -2
-38 -4 -64 -3 -41 -1 -46 15 -45 11 1 19 6 19 11 0 6 7 3 16 -6 13 -13 14 -20
4 -39 -7 -13 -22 -31 -34 -40 -17 -14 -21 -27 -19 -73 2 -43 -1 -58 -12 -62
-22 -9 -43 12 -51 49 -10 51 -81 266 -108 333 -23 54 -26 76 -27 200 -1 99 3
155 14 197 12 42 13 65 6 84 -5 14 -9 33 -8 42 4 40 -1 44 -23 19 -13 -14 -33
-31 -45 -37 -15 -8 -24 -24 -29 -56 -3 -25 -10 -45 -14 -45 -15 0 -20 46 -20
188 0 78 -4 142 -8 142 -4 0 -14 -18 -22 -40 -8 -22 -19 -40 -25 -39 -12 0 -8
60 5 73 6 6 10 20 10 33 0 13 7 39 15 59 17 42 91 131 114 137 26 7 37 7 44 0z
m-250 -109 c34 -13 -16 -81 -51 -70 -25 8 -19 40 11 61 25 17 21 17 40 9z
m-87 -81 c-2 -10 -15 -24 -29 -31 -15 -7 -27 -17 -27 -23 0 -5 -4 -9 -10 -9
-18 0 -10 29 10 35 11 3 25 15 30 26 13 24 29 25 26 2z m-158 -17 c-10 -7 -18
-17 -18 -22 -1 -5 -14 -20 -30 -34 -17 -13 -30 -28 -30 -33 0 -5 -7 -15 -15
-23 -13 -14 -15 -12 -15 13 1 40 23 74 61 94 43 21 72 25 47 5z m146 -113 c-4
-16 -13 -33 -20 -39 -8 -6 -14 -18 -14 -27 0 -13 -28 -32 -36 -24 -2 1 7 26
20 54 20 43 31 56 54 62 1 1 0 -11 -4 -26z m-244 -48 c0 -8 -7 -15 -16 -15 -8
0 -13 -4 -9 -9 3 -5 -19 -24 -48 -43 -40 -24 -58 -43 -70 -73 -9 -22 -17 -45
-17 -52 0 -6 -4 -13 -10 -15 -5 -1 -15 -27 -23 -57 -8 -30 -20 -59 -28 -65
-21 -15 -30 -44 -16 -49 7 -2 4 -16 -10 -43 -11 -22 -24 -54 -27 -72 -4 -17
-11 -31 -14 -31 -22 3 -30 -4 -34 -28 -3 -16 -17 -68 -32 -117 -14 -48 -26
-107 -26 -130 0 -22 -8 -54 -17 -71 -24 -43 -31 -243 -10 -276 20 -32 25 -127
8 -158 -12 -23 -14 -23 -24 -6 -5 10 -11 70 -12 134 -1 76 -6 116 -13 119 -14
4 -16 72 -3 72 5 0 11 14 13 30 3 17 1 30 -3 30 -17 0 -18 60 -5 150 16 102
50 228 66 244 5 5 10 19 10 30 0 11 7 27 16 37 9 10 20 32 24 51 12 48 32 97
58 143 32 56 47 84 68 130 20 41 106 135 124 135 6 0 14 -10 19 -22 7 -21 8
-20 27 10 20 34 34 41 34 17z m12 -82 c-9 -21 -20 -39 -24 -41 -5 -2 -8 -9 -8
-17 0 -23 -47 -119 -74 -150 -15 -17 -26 -42 -26 -59 0 -22 -4 -27 -18 -24
-17 5 -18 -1 -15 -59 3 -48 1 -63 -9 -61 -7 2 -13 -6 -13 -17 -1 -32 -26 -145
-46 -209 -21 -65 -23 -144 -8 -251 12 -78 14 -143 7 -150 -13 -13 -38 11 -54
53 -15 37 -18 68 -16 147 3 111 33 293 57 350 8 21 15 45 15 54 0 9 7 29 15
45 8 15 15 37 15 47 0 10 5 21 11 24 6 4 8 14 4 22 -7 20 16 73 32 73 7 0 15
11 19 25 3 14 10 25 15 25 5 0 9 15 9 34 0 36 32 90 84 143 41 43 49 41 28 -4z
m338 -353 c4 -68 2 -78 -10 -60 -12 19 -13 127 -1 115 5 -6 10 -30 11 -55z
m52 -232 c37 -103 60 -236 48 -275 -8 -28 -10 -26 -15 12 -2 11 -12 47 -23 80
-29 86 -52 194 -52 239 0 52 6 43 42 -56z m1637 -307 c3 -1 -5 -12 -18 -24
-20 -23 -25 -23 -72 -13 -27 7 -51 16 -52 21 -4 17 73 26 142 16z m-634 -26
c32 -25 33 -27 18 -55 -21 -43 -10 -52 53 -44 50 6 56 4 91 -25 80 -68 90 -79
97 -104 3 -14 13 -32 21 -41 18 -18 19 -40 3 -66 -9 -13 -9 -27 -3 -46 11 -29
25 -40 68 -49 38 -8 53 -47 23 -58 -28 -11 -86 1 -93 19 -3 7 -16 14 -29 14
-32 0 -68 -52 -85 -120 -7 -30 -22 -65 -32 -77 -24 -27 -81 -47 -105 -38 -9 4
-55 9 -102 11 -60 3 -88 8 -96 19 -6 8 -21 15 -33 15 -12 0 -24 7 -27 15 -9
23 -26 18 -19 -6 6 -19 4 -21 -19 -17 -19 4 -27 0 -31 -13 -7 -22 -21 -25 -28
-6 -9 23 4 182 16 189 8 5 6 9 -6 14 -12 4 -16 13 -12 25 7 21 -14 26 -44 10
-25 -14 -43 2 -46 38 -5 55 22 76 102 78 116 4 186 3 194 -3 5 -2 32 2 62 11
37 11 60 25 76 46 13 17 21 33 18 36 -3 2 -25 -2 -50 -11 -79 -27 -115 5 -61
55 26 25 54 70 54 89 0 5 -19 10 -43 10 -24 0 -52 6 -63 14 -10 8 -29 12 -42
9 -39 -9 -11 36 39 62 58 31 93 31 134 0z m-1735 -337 c0 -13 -20 -9 -35 6
-11 10 -11 16 -2 25 9 9 15 8 24 -6 7 -9 13 -20 13 -25z m1257 -270 c9 23 22
12 29 -23 9 -51 37 -63 63 -27 15 20 20 23 21 10 0 -9 3 -18 8 -20 4 -1 15
-17 24 -33 12 -22 14 -35 6 -49 -5 -10 -8 -31 -4 -47 8 -41 -11 -55 -72 -51
-41 3 -57 10 -79 32 -16 16 -39 30 -53 32 -20 2 -26 10 -32 47 -7 39 -4 48 21
80 16 20 32 47 36 61 l8 25 10 -25 c5 -15 11 -20 14 -12z m-245 -321 c8 -18
16 -36 17 -42 2 -5 7 -15 12 -21 9 -12 2 -44 -10 -44 -12 1 -82 122 -77 135 8
22 42 6 58 -28z m233 13 c38 -19 45 -28 45 -62 0 -15 4 -29 10 -33 5 -3 7 -11
4 -18 -4 -12 -94 -18 -94 -6 0 4 -8 9 -19 12 -14 3 -18 14 -18 48 0 41 25 96
37 80 3 -3 19 -13 35 -21z m530 -81 c20 -38 2 -84 -26 -68 -19 10 -35 69 -25
94 8 21 34 8 51 -26z m-683 -69 c36 0 38 -27 3 -36 -37 -9 -55 2 -55 33 0 21
3 24 12 15 7 -7 25 -12 40 -12z m58 -25 c0 -8 4 -15 9 -15 18 0 22 -40 7 -62
-11 -15 -13 -34 -9 -64 7 -51 -3 -87 -17 -64 -7 10 -10 11 -10 2 0 -10 -4 -10
-21 0 -16 11 -19 19 -14 48 4 19 13 45 21 58 8 13 14 35 13 50 -3 43 0 62 11
62 6 0 10 -7 10 -15z m-82 -370 c2 -21 13 -37 37 -53 32 -22 52 -63 40 -82 -3
-5 -1 -11 4 -15 6 -3 8 -12 4 -20 -3 -9 1 -15 8 -15 10 0 10 -3 1 -12 -7 -7
-8 -16 -3 -22 5 -6 12 -31 16 -55 7 -42 6 -43 -16 -35 -13 4 -32 8 -43 9 -10
1 -22 9 -28 18 -5 9 -16 17 -23 17 -8 0 -15 7 -15 15 0 10 -10 15 -31 15 -17
0 -62 10 -100 22 -64 21 -69 25 -75 55 -4 22 -1 41 10 58 20 31 64 60 74 50 4
-4 1 -10 -5 -12 -20 -7 -15 -23 6 -23 10 0 21 -7 25 -15 4 -10 12 -12 26 -7
18 7 22 18 26 66 5 69 9 78 37 74 16 -2 23 -11 25 -33z m1286 -422 c8 -93 -6
-173 -34 -191 -47 -29 -69 91 -31 171 11 23 25 54 30 70 18 46 28 31 35 -50z"/>
<path d="M2696 3505 c27 -20 51 -20 34 0 -7 8 -22 15 -33 15 -20 0 -20 0 -1
-15z"/>
<path d="M3096 1898 c-5 -55 -4 -65 19 -98 37 -54 33 -76 -27 -132 -51 -47
-52 -49 -34 -63 25 -19 35 -19 42 0 4 8 14 15 23 15 15 0 43 -60 66 -137 12
-44 20 -22 23 65 1 48 12 123 23 166 21 82 19 146 -5 175 -20 25 -88 71 -106
71 -14 0 -18 -13 -24 -62z"/>
<path d="M2735 1210 c3 -5 13 -10 21 -10 8 0 14 5 14 10 0 6 -9 10 -21 10 -11
0 -17 -4 -14 -10z"/>
<path d="M2080 1846 c0 -2 7 -7 16 -10 8 -3 12 -2 9 4 -6 10 -25 14 -25 6z"/>
<path d="M1626 732 c-3 -5 1 -9 9 -9 8 0 12 4 9 9 -3 4 -7 8 -9 8 -2 0 -6 -4
-9 -8z"/>
<path d="M1630 695 c0 -9 5 -15 11 -13 6 2 11 8 11 13 0 5 -5 11 -11 13 -6 2
-11 -4 -11 -13z"/>
</g>
</svg>
